<?xml version="1.0" encoding="UTF-8" standalone="no"?>
<svg
   xmlns:dc="http://purl.org/dc/elements/1.1/"
   xmlns:cc="http://creativecommons.org/ns#"
   xmlns:rdf="http://www.w3.org/1999/02/22-rdf-syntax-ns#"
   xmlns:svg="http://www.w3.org/2000/svg"
   xmlns="http://www.w3.org/2000/svg"
   xmlns:sodipodi="http://sodipodi.sourceforge.net/DTD/sodipodi-0.dtd"
   xmlns:inkscape="http://www.inkscape.org/namespaces/inkscape"
   inkscape:version="1.0 (4035a4fb49, 2020-05-01)"
   sodipodi:docname="behance.svg"
   id="svg4"
   version="1.1"
   viewBox="0 0 576 512">
  <metadata
     id="metadata10">
    <rdf:RDF>
      <cc:Work
         rdf:about="">
        <dc:format>image/svg+xml</dc:format>
        <dc:type
           rdf:resource="http://purl.org/dc/dcmitype/StillImage" />
      </cc:Work>
    </rdf:RDF>
  </metadata>
  <defs
     id="defs8" />
  <sodipodi:namedview
     inkscape:current-layer="svg4"
     inkscape:window-maximized="1"
     inkscape:window-y="-8"
     inkscape:window-x="-8"
     inkscape:cy="256"
     inkscape:cx="288"
     inkscape:zoom="1.1289062"
     showgrid="false"
     id="namedview6"
     inkscape:window-height="745"
     inkscape:window-width="1366"
     inkscape:pageshadow="2"
     inkscape:pageopacity="0"
     guidetolerance="10"
     gridtolerance="10"
     objecttolerance="10"
     borderopacity="1"
     bordercolor="#666666"
     pagecolor="#ffffff" />
  <path
     id="path2"
     d="M232 237.2c31.8-15.2 48.4-38.2 48.4-74 0-70.6-52.6-87.8-113.3-87.8H0v354.4h171.8c64.4 0 124.9-30.9 124.9-102.9 0-44.5-21.1-77.4-64.7-89.7zM77.9 135.9H151c28.1 0 53.4 7.9 53.4 40.5 0 30.1-19.7 42.2-47.5 42.2h-79v-82.7zm83.3 233.7H77.9V272h84.9c34.3 0 56 14.3 56 50.6 0 35.8-25.9 47-57.6 47zm358.5-240.7H376V94h143.7v34.9zM576 305.2c0-75.9-44.4-139.2-124.9-139.2-78.2 0-131.3 58.8-131.3 135.8 0 79.9 50.3 134.7 131.3 134.7 61.3 0 101-27.6 120.1-86.3H509c-6.7 21.9-34.3 33.5-55.7 33.5-41.3 0-63-24.2-63-65.3h185.1c.3-4.2.6-8.7.6-13.2zM390.4 274c2.3-33.7 24.7-54.8 58.5-54.8 35.4 0 53.2 20.8 56.2 54.8H390.4z" />
  <path
     id="path12"
     d="M 0.11072664,252.89965 V 76.179931 H 92.270204 c 58.782876,0 95.274716,0.339338 100.761246,0.93698 45.55285,4.962018 72.5233,22.911639 82.44453,54.869249 3.26759,10.52535 4.0153,16.20172 4.02552,30.56055 0.008,11.74907 -0.32923,15.53035 -1.97388,22.10951 -5.4209,21.68541 -17.84399,36.72229 -40.89355,49.49746 -4.60964,2.55488 -5.36572,3.26359 -3.96137,3.71321 16.00584,5.12453 28.49905,12.28203 38.31796,21.95279 10.68893,10.52765 17.69577,23.01481 22.09179,39.37063 2.15032,8.00046 2.32084,9.98626 2.33833,27.23184 0.0177,17.4672 -0.12699,19.14121 -2.37211,27.4394 -11.76448,43.48281 -49.33654,69.78504 -106.91718,74.84712 -6.01035,0.52839 -46.23187,0.89866 -98.103808,0.90313 l -87.91695536,0.008 z M 172.84429,369.38932 c 25.49868,-2.93288 39.71983,-13.23126 44.70594,-32.37422 1.75367,-6.73281 1.75878,-22.94783 0.01,-30.36763 -3.1948,-13.55171 -10.34089,-22.80271 -21.99661,-28.4758 -12.38969,-6.03033 -14.58925,-6.22703 -69.62964,-6.22703 H 77.176471 v 49.16263 49.16263 l 44.069199,-0.007 c 24.23807,-0.004 47.45744,-0.397 51.59862,-0.87331 z m -0.52047,-151.92141 c 12.01892,-2.5462 20.93551,-8.09266 26.02949,-16.19135 4.71167,-7.49087 5.94072,-12.69587 5.90319,-24.99974 -0.0283,-9.29362 -0.348,-11.86226 -1.98954,-15.98703 -5.43097,-13.64673 -16.75529,-21.1326 -36.02245,-23.81241 -4.04014,-0.56194 -23.56317,-0.94797 -47.94183,-0.94797 H 77.176471 v 41.63322 41.63322 l 44.512109,-0.0154 c 35.66157,-0.0123 45.7296,-0.2733 50.63524,-1.31256 z"
     style="font-variation-settings:normal;opacity:1;vector-effect:none;fill:#000000;fill-opacity:1;stroke-width:1.33582;stroke-linecap:butt;stroke-linejoin:miter;stroke-miterlimit:4;stroke-dasharray:none;stroke-dashoffset:0;stroke-opacity:1;stop-color:#000000;stop-opacity:1" />
  <path
     id="path14"
     d="M 0.11072664,252.89965 V 76.179931 H 92.270204 c 58.782876,0 95.274716,0.339338 100.761246,0.93698 40.57369,4.419644 66.43928,19.155985 78.59891,44.779959 10.13197,21.3511 10.96766,54.44717 1.89294,74.96673 -6.53564,14.77823 -18.77358,27.41278 -35.40945,36.55701 -5.73599,3.1529 -7.34614,4.86313 -4.57854,4.86313 2.63921,0 16.69929,6.21897 23.34101,10.32406 13.1986,8.15774 25.07141,21.90306 31.44947,36.4095 1.34046,3.04879 3.48097,9.42665 4.75666,14.17301 2.15032,8.00046 2.32084,9.98626 2.33833,27.23184 0.0177,17.4672 -0.12699,19.14121 -2.37211,27.4394 -11.76987,43.5027 -49.31021,69.78273 -106.91718,74.84712 -6.01035,0.52839 -46.23187,0.89866 -98.103808,0.90313 l -87.91695536,0.008 z M 172.40138,369.3887 c 15.95523,-1.70214 27.01327,-6.08712 34.67857,-13.75155 8.36262,-8.36167 11.83604,-18.11499 11.81125,-33.16582 -0.0278,-16.85395 -3.70138,-27.63705 -12.42539,-36.47208 -5.36438,-5.43265 -10.32163,-8.29771 -19.89142,-11.49632 -6.17249,-2.0631 -6.43531,-2.07383 -57.7993,-2.3614 l -51.598619,-0.28889 v 49.20863 49.20863 l 43.626299,-0.0153 c 23.99446,-0.009 47.21384,-0.39807 51.59861,-0.86585 z m -0.14634,-151.90641 c 15.52511,-3.28944 25.21452,-11.08972 30.02185,-24.16856 1.52881,-4.15925 1.87538,-7.16273 1.91479,-16.59401 0.0414,-9.8956 -0.22822,-12.2069 -1.91619,-16.42993 -5.46008,-13.6603 -16.76728,-21.13308 -36.03098,-23.81241 -4.04014,-0.56194 -23.56317,-0.94797 -47.94183,-0.94797 H 77.176471 v 41.63322 41.63322 l 44.512109,-0.0154 c 35.43418,-0.0122 45.74686,-0.277 50.56646,-1.29817 z"
     style="font-variation-settings:normal;opacity:1;vector-effect:none;fill:#ffffff;fill-opacity:1;stroke-width:3;stroke-linecap:butt;stroke-linejoin:miter;stroke-miterlimit:4;stroke-dasharray:none;stroke-dashoffset:0;stroke-opacity:1;stop-color:#000000;stop-opacity:1;stroke:#ffffff" />
  <path
     id="path16"
     d="m 428.34668,434.51084 c -30.01942,-4.58252 -53.19047,-16.00781 -72.20027,-35.60083 -11.1181,-11.45921 -17.90259,-21.66898 -24.24311,-36.48266 -14.30919,-33.43127 -15.31173,-78.22902 -2.52053,-112.62804 15.82855,-42.56729 49.05383,-71.05614 94.14664,-80.72555 12.4329,-2.66604 40.42714,-2.93221 52.50206,-0.4992 24.3568,4.90772 43.85829,15.22236 60.44483,31.9702 13.84979,13.98447 23.17379,29.23913 30.0739,49.20285 6.13535,17.75106 10.0903,45.44458 8.76778,61.39426 l -0.56924,6.86505 h -92.44012 -92.44011 v 4.03794 c 0,10.79939 3.11751,23.58753 8.11039,33.26909 8.42153,16.32998 23.84474,25.84007 45.79326,28.23654 15.69826,1.71403 32.74892,-1.67811 45.00772,-8.95403 7.22499,-4.28823 15.48027,-12.68301 18.40995,-18.72103 l 2.47136,-5.09342 h 30.44417 30.44417 l -1.8532,5.09342 c -11.19584,30.77113 -30.96287,54.69832 -55.25688,66.88619 -8.93113,4.48059 -20.19955,8.2643 -31.18081,10.46987 -12.29497,2.46945 -41.56561,3.16404 -53.91196,1.27935 z M 505.59089,273.0519 c -0.24119,-0.85259 -0.71423,-3.74256 -1.0512,-6.42214 -1.65793,-13.18378 -7.11164,-24.65279 -15.80491,-33.2373 -10.70215,-10.56828 -20.50477,-14.06845 -39.51679,-14.11008 -13.71215,-0.03 -19.6701,1.21474 -30.007,6.26925 -15.45813,7.55868 -26.06515,23.86993 -28.87274,44.39993 l -0.63598,4.65052 h 58.16357 c 54.97041,0 58.13951,-0.0851 57.72505,-1.55018 z"
     style="font-variation-settings:normal;opacity:1;vector-effect:none;fill:#ffffff;fill-opacity:1;stroke-width:3;stroke-linecap:butt;stroke-linejoin:miter;stroke-miterlimit:4;stroke-dasharray:none;stroke-dashoffset:0;stroke-opacity:1;stop-color:#000000;stop-opacity:1;stroke:#ffffff" />
  <path
     id="path18"
     d="M 376.58131,111.61246 V 94.782007 h 71.30796 71.30796 v 16.830453 16.83045 h -71.30796 -71.30796 z"
     style="font-variation-settings:normal;opacity:1;vector-effect:none;fill:#000000;fill-opacity:1;stroke-width:1.33582;stroke-linecap:butt;stroke-linejoin:miter;stroke-miterlimit:4;stroke-dasharray:none;stroke-dashoffset:0;stroke-opacity:1;stop-color:#000000;stop-opacity:1" />
  <path
     id="path20"
     d="M 376.58131,111.61246 V 94.782007 h 71.30796 71.30796 v 16.830453 16.83045 h -71.30796 -71.30796 z"
     style="font-variation-settings:normal;opacity:1;vector-effect:none;fill:#ffffff;fill-opacity:1;stroke-width:3;stroke-linecap:butt;stroke-linejoin:miter;stroke-miterlimit:4;stroke-dasharray:none;stroke-dashoffset:0;stroke-opacity:1;stop-color:#000000;stop-opacity:1;stroke:#ffffff" />
</svg>
